<svg xmlns="http://www.w3.org/2000/svg" width="1390.363" height="769.023" viewBox="0 0 1390.363 769.023"><g id="Group_3412" data-name="Group 3412" transform="translate(0 -103)" opacity="0.2"><path id="Path_109" data-name="Path 109" d="M-343.446,1356.409c-15.952-10.9-21.535-28.182-4.254-38.817s62.213-36.956,81.622-48.122,52.642-9.837,69.658,0,299.633,173.878,329.942,190.361,36.69,43.071,6.913,62.213-164.306,100.5-186.639,113.26-59.554,19.674-86.141,2.659c0,0-21.8-14.357-40.412-28.182s-40.412-22.865-81.356-6.381-60.086,21.269-95.713-.532-48.388-29.246-65.935-39.88-18.611-28.714,11.166-45.2,112.2-64.872,132.4-75.507,26.055-29.777-7.444-48.92S-343.446,1356.409-343.446,1356.409Z" transform="translate(428.13 -1032.145)" fill="#7f86b5"></path><path id="Path_110" data-name="Path 110" d="M-101.712,1234.5c-26.41,0-52.288,12.408-52.288,29.6s19.674,31.373,52.288,31.373,51.4-14,51.4-32.167S-78.493,1234.5-101.712,1234.5Z" transform="translate(445.529 -1033.864)" fill="#7f86b5"></path><path id="Path_111" data-name="Path 111" d="M-35.067,1634.792c-11.964,7.444-28.182,22.067,0,44.134,0,0,7.71,4.254,23.4,14.623s53.174,8.508,67.265,0c7.71-3.988,19.143-10.9,31.9-18.611s17.016-27.119-4.52-40.146c-10.635-6.115-12.762-7.444-24.992-13.825s-43.071-13.825-68.062,0Z" transform="translate(182.087 -986.83)" fill="#7f86b5"></path><path id="Path_112" data-name="Path 112" d="M778.9,1551.366c-11.176,6.954-26.325,20.613,0,41.227,0,0,7.2,3.973,21.854,13.659s49.671,7.946,62.833,0c7.2-3.726,17.881-10.183,29.8-17.385s15.895-25.332-4.222-37.5c-9.934-5.712-11.92-6.954-23.345-12.914s-40.232-12.915-63.578,0Z" transform="translate(-176.393 -1026.644)" fill="#7f86b5"></path><path id="Path_113" data-name="Path 113" d="M199.02,1688.617c-10.843,6.748-25.543,20,0,40,0,0,6.988,3.855,21.206,13.253s48.194,7.711,60.966,0c6.988-3.613,17.35-9.879,28.916-16.867s15.422-24.579-4.1-36.387c-9.638-5.542-11.566-6.747-22.651-12.53s-39.037-12.531-61.688,0Z" transform="translate(905.8 -1221.488)" fill="#7f86b5"></path><path id="Path_114" data-name="Path 114" d="M557.174,1493.9s-197.806,110.6-220.139,124.426-41.475,43.6-6.381,65.935,159.521,93.586,186.108,108.474,53.174,19.143,90.4-3.19,159.521-93.586,188.235-108.475,27.65-35.094,0-51.046-31.9-19.142-49.983-27.651-24.46-29.777,1.064-44.665,48.92-28.714,70.189-41.476,25.523-31.9,0-45.729-51.047-29.777-70.189-40.412-47.856-17.016-85.078,4.254Z" transform="translate(238.878 -933.074)" fill="#7f86b5"></path><path id="Path_115" data-name="Path 115" d="M616.825,1792.889c-30.841,20.207-26.587,35.095-5.317,47.856s51.047,11.7,74.443,0,47.856-17.015,73.38-1.063,61.681,11.7,92.522-6.381,28.714-17.016,53.174-30.841,29.777-35.094-8.508-56.364-39.349-21.269-61.682-34.031-49.983-13.825-80.824,4.254S616.825,1792.889,616.825,1792.889Z" transform="translate(466.046 -1170.329)" fill="#7f86b5"></path><path id="Path_116" data-name="Path 116" d="M155.474,1234.777c-15.952-12.762-24.46-22.333-5.317-34.031s76.57-45.73,95.713-55.3,38.285-10.635,54.237,0,37.222,10.635,59.554-2.127,135.061-77.633,152.077-88.268,40.412-13.825,63.808,0,183.981,107.411,204.187,119.109,45.729,24.46,11.7,43.6-144.632,80.824-157.394,89.332-18.079,20.206-2.127,29.777,37.221,8.508,53.173,0c7.444-3.19,11.7-4.254,22.333-12.761s28.714-10.635,51.047,2.127c9.571,5.317,11.7,6.381,20.206,10.635,20.206,13.825,10.635,23.4,0,30.841s-15.952,10.635-28.714,15.952-31.9,4.254-47.856-5.317-37.222-24.46-69.126-7.444-76.57,48.919-98.9,64.872-35.095,14.889-60.618,0S155.474,1234.777,155.474,1234.777Z" transform="translate(290.137 -942.839)" fill="#7f86b5"></path></g></svg>