<svg xmlns="http://www.w3.org/2000/svg" width="512" height="196.961" viewBox="0 0 512 196.961">
  <g id="logo" transform="translate(-737.804 591.16)">
    <path id="Path_3329" data-name="Path 3329" d="M739.62-496.92a5.746,5.746,0,0,0,0,8.373c1.976,1.975,14.4,14.4,16.71,16.71s5.788,3.3,9.09,0,63.384-63.382,65.988-65.99,6.322-3.807,10.129,0,64,64,66.28,66.283a6.11,6.11,0,0,0,8.7,0c2.581-2.581,13.818-13.82,16.122-16.122s3.393-7.056,0-10.159-89.039-89.039-91.456-91.456-6.646-2.728-9.778.4S739.62-496.92,739.62-496.92Z" transform="translate(0 0)" fill="#00dd9a"/>
    <path id="Path_3330" data-name="Path 3330" d="M852.076-468.41c3.257-3.255,6.944-3.639,10.581,0s49.593,49.593,51.827,51.825,4.176,5.576,0,9.752S865.051-357.4,862.051-354.4a6.166,6.166,0,0,1-9.21,0c-2.5-2.5-49.418-49.418-52.414-52.415s-2.7-6.181,0-9.577S852.076-468.41,852.076-468.41Z" transform="translate(-21.072 -41.864)" fill="#172683"/>
    <path id="Path_3331" data-name="Path 3331" d="M1110.925-529.831v62.6h14.913v-37.1l36.847,37.1h9.431v-62.6h-15.3v36.843l-36.334-36.843Z" transform="translate(-129.995 -21.367)" fill="#172683"/>
    <path id="Subtraction_32" data-name="Subtraction 32" d="M34.039,64.254a42.9,42.9,0,0,1-12.956-1.908,31.889,31.889,0,0,1-10.852-5.8,27.116,27.116,0,0,1-7.458-9.821A33.867,33.867,0,0,1,0,32.765,37.4,37.4,0,0,1,2.562,18.609,28.018,28.018,0,0,1,9.67,8.35,30.438,30.438,0,0,1,20.452,2.107,42.149,42.149,0,0,1,34.039,0,39.1,39.1,0,0,1,47.507,2.25,29.839,29.839,0,0,1,58.027,8.732c6.076,5.84,9.288,14.151,9.288,24.033,0,9.643-3.405,17.733-9.848,23.4A31.24,31.24,0,0,1,46.876,62.2,39.557,39.557,0,0,1,34.039,64.254Zm-.382-51.888c-9.011,0-18.1,6.228-18.1,20.143,0,13.4,9.384,19.506,18.1,19.506,8.813,0,18.231-5.124,18.231-19.506C51.888,19.9,45.073,12.366,33.657,12.366Z" transform="translate(1051.814 -552.219)" fill="#172683"/>
    <path id="Subtraction_33" data-name="Subtraction 33" d="M15.171,62.47H0V0H28.3a28.856,28.856,0,0,1,8.6,1.239,20.551,20.551,0,0,1,7.055,3.743,17.246,17.246,0,0,1,4.771,6.288,21.627,21.627,0,0,1,1.754,8.874,21.455,21.455,0,0,1-1.653,8.515,18.479,18.479,0,0,1-3.637,5.5A17.2,17.2,0,0,1,39.9,37.992l16.19,24.477h-18.1l-13-21.673H15.171V62.47Zm0-50.231V28.43h9.816c3.582,0,6.5-.972,8.209-2.736a6.992,6.992,0,0,0,1.863-5.3c-.088-2.916-.942-4.969-2.609-6.278-1.612-1.266-4.053-1.881-7.463-1.881Z" transform="translate(1128.946 -551.199)" fill="#172683"/>
    <path id="Subtraction_34" data-name="Subtraction 34" d="M26.263,62.725H0V0H26.263c9.326,0,17.174,2.849,22.7,8.239,5.585,5.45,8.537,13.27,8.537,22.613,0,9.485-2.878,17.481-8.324,23.124C43.65,59.7,35.727,62.725,26.263,62.725ZM15.171,12.239V50.1H26.135c7.581,0,15.681-4.957,15.681-18.869,0-17.145-10.966-19-15.681-19Z" transform="translate(1192.307 -551.199)" fill="#172683"/>
    <path id="Path_3338" data-name="Path 3338" d="M1114.972-361.985h3.215v-11.963h10.935v-2.812h-10.935v-10.579H1130.6v-2.723h-15.625Z" transform="translate(-131.405 -70.062)" fill="#00dd9a"/>
    <path id="Path_3339" data-name="Path 3339" d="M1171.9-390.062h3.215v28.032H1171.9Z" transform="translate(-151.236 -70.062)" fill="#00dd9a"/>
    <path id="Path_3340" data-name="Path 3340" d="M1211.973-362.051h3.17V-384.28l18.84,22.229h2.094v-27.943h-3.212v21.917l-18.478-21.917h-2.414Z" transform="translate(-165.199 -70.086)" fill="#00dd9a"/>
    <path id="Path_3343" data-name="Path 3343" d="M1211.973-362.051h3.17V-384.28l18.84,22.229h2.094v-27.943h-3.212v21.917l-18.478-21.917h-2.414Z" transform="translate(-73.975 -70.086)" fill="#00dd9a"/>
    <path id="Subtraction_35" data-name="Subtraction 35" d="M3.656,27.854H0L12.128,0h3.133L27.389,27.853H23.85L20.6,20.542H6.905L3.656,27.854ZM13.52,3.946h0L7.892,17.757h11.78L13.52,3.946Z" transform="translate(1090.862 -459.892)" fill="#00dd9a"/>
    <path id="Path_3344" data-name="Path 3344" d="M1443.691-388.119v3.191s-2.378-2.669-7.54-2.669-10.682,3.539-10.682,11.722,5.049,11.432,10.682,11.432,7.54-2.844,7.54-2.844v3.424a12.332,12.332,0,0,1-7.54,2.2c-4.9,0-13.583-2.541-13.583-14.217s9.576-14.275,13.583-14.275A17.1,17.1,0,0,1,1443.691-388.119Z" transform="translate(-238.57 -70.031)" fill="#00dd9a"/>
    <path id="Path_3345" data-name="Path 3345" d="M1504.968-390.151v2.728h-13.7v9.748h12.884v2.612h-12.884v10.444h14.333v2.728h-17.583v-28.26Z" transform="translate(-261.374 -70.031)" fill="#00dd9a"/>
  </g>
</svg>
