<svg xmlns="http://www.w3.org/2000/svg" xmlns:xlink="http://www.w3.org/1999/xlink" width="86" height="86" viewBox="0 0 86 86"><defs><clipPath id="clip-path"><rect id="Rectangle_2902" data-name="Rectangle 2902" width="86" height="86" transform="translate(6020 6346)" fill="none" stroke="#707070" stroke-width="1"></rect></clipPath></defs><g id="terasurge-logo" transform="translate(-6020 -6346)" clip-path="url(#clip-path)"><g id="Group_3520" data-name="Group 3520" transform="translate(236.653 -15.938)"><g id="Group_3517" data-name="Group 3517" transform="translate(5795.918 6362.22)"><g id="Group_3515" data-name="Group 3515" transform="translate(0 42.743)"><path id="Path_3991" data-name="Path 3991" d="M29.245,28.356l-.555-9.884H22.818V55.644l4.066.722v1.063H14V56.365l2.6-.722V18.484l-5.785-.013L7.412,28.356H1.828V17.17H34.674V28.356Z" transform="translate(-1.828 -14.454)" fill="#727888"></path><path id="Path_3995" data-name="Path 3995" d="M205.561,15.538h.924V25.912h-6.151V18.966c-1.368-.745-1.277-1.249-3.181-1.6-.5-.1-.884-.608-1.824-.6a8.152,8.152,0,0,0-6.037,2.2,7.332,7.332,0,0,0-2.2,5.393,6.405,6.405,0,0,0,1.563,4.736A10.678,10.678,0,0,0,193.2,31.55L201.081,34a9.727,9.727,0,0,1,5.679,3.757q1.848,2.693,1.848,8.209t-3.019,8.744a9.958,9.958,0,0,1-7.6,3.222c-2.986.007-3.487-.145-6.757-.145l-3.894-1.163-1.485.735H180.41V44.469h5.444l3.763,9.311a5.506,5.506,0,0,0,5.084,3.227c2.837,0,2.921-.33,4.6-1.855s2.814-2.614,2.81-5.5c.086-1.808,1.4-3.762.3-5.053-1.07-1.166-.013-3.751-2.5-4.46l-7.241-2.126a10.3,10.3,0,0,1-5.718-3.963c-1.312-1.867-6.1-5.738-6.064-8.138,0-3.6,2.265-6.643,4.087-8.82,1.869-2.2,7.195-1.694,9.868-1.573,2.581-.08,4.493,1.9,6.239.019Z" transform="translate(-146.567 -15.382)" fill="#727888"></path></g><path id="Path_4007" data-name="Path 4007" d="M282.321,42.2h-5.342L262.795,18.135,243.269,42.2h-5.392L257.35,5.41h5.445l25.048,30.873Z" transform="translate(-229.948 -5.41)" fill="#727888"></path></g><g id="Group_3516" data-name="Group 3516" transform="translate(5794.896 6362.22)"><g id="Group_3515-2" data-name="Group 3515" transform="translate(0 42.872)"><path id="Path_3991-2" data-name="Path 3991" d="M32.192,28.356,29,18.472H21.686V55.644l4.066.722v1.063H12.871V56.365l3.976-.735V18.472H9.685L6.28,28.356H5.07V17.17H33.542V28.356Z" transform="translate(-5.07 -14.582)" fill="#0b152d"></path><path id="Path_3995-2" data-name="Path 3995" d="M204.392,15.5h.924V25.879h-.924l-3.136-7.352a14.485,14.485,0,0,0-7.1-1.8,8.152,8.152,0,0,0-6.037,2.2,7.332,7.332,0,0,0-2.2,5.393,6.405,6.405,0,0,0,1.563,4.736,10.678,10.678,0,0,0,4.542,2.455l7.885,2.448a9.727,9.727,0,0,1,5.679,3.757q1.848,2.693,1.848,8.209t-3.019,8.744a9.958,9.958,0,0,1-7.6,3.222,14.365,14.365,0,0,1-8.445-2.777l-3.691,2.2h-.924V44.436h.924l3.763,9.311a12.222,12.222,0,0,0,7.88,2.945,9.72,9.72,0,0,0,6.782-2.287,8.456,8.456,0,0,0,2.52-6.617,7.016,7.016,0,0,0-1.6-4.865,11.193,11.193,0,0,0-5.292-2.816L191.5,37.979a10.3,10.3,0,0,1-5.718-3.963,11.246,11.246,0,0,1-1.977-6.6,13.055,13.055,0,0,1,2.733-8.66,8.845,8.845,0,0,1,7.135-3.267,16.057,16.057,0,0,1,7.527,1.63Z" transform="translate(-149.771 -15.477)" fill="#0b152d"></path></g><path id="Path_4007-2" data-name="Path 4007" d="M282.355,42.2,262.828,18.135,243.3,42.2l-5.522-5.915L262.828,5.41l25.048,30.873Z" transform="translate(-234.355 -5.41)" fill="#0b152d"></path></g></g></g></svg>