<svg xmlns="http://www.w3.org/2000/svg" xmlns:xlink="http://www.w3.org/1999/xlink" width="86" height="86" viewBox="0 0 86 86"><defs><clipPath id="clip-path"><rect id="Rectangle_2901" data-name="Rectangle 2901" width="86" height="86" transform="translate(6026 5977)" fill="none" stroke="#707070" stroke-width="1"></rect></clipPath><linearGradient id="linear-gradient" x1="0.6" y1="0.361" x2="0" y2="0.408" gradientUnits="objectBoundingBox"><stop offset="0" stop-color="#4c9af3"></stop><stop offset="1" stop-color="#8f54e9"></stop></linearGradient><linearGradient id="linear-gradient-2" x1="0.627" y1="0.077" x2="0.844" y2="0.807" gradientUnits="objectBoundingBox"><stop offset="0" stop-color="#0861bf"></stop><stop offset="1" stop-color="#2a9deb"></stop></linearGradient><linearGradient id="linear-gradient-3" x1="0.195" y1="0.5" x2="0.829" y2="0.5" gradientUnits="objectBoundingBox"><stop offset="0" stop-color="#875fe8"></stop><stop offset="1" stop-color="#4a35d6"></stop></linearGradient><linearGradient id="linear-gradient-4" x1="0.13" y1="0.538" x2="0.88" y2="0.576" gradientUnits="objectBoundingBox"><stop offset="0" stop-color="#ff5d87"></stop><stop offset="1" stop-color="#ff9b55"></stop></linearGradient><linearGradient id="linear-gradient-5" x1="0.089" y1="0.795" x2="0.891" y2="0.91" gradientUnits="objectBoundingBox"><stop offset="0" stop-color="#ff5d87"></stop><stop offset="0.799" stop-color="#ffd089"></stop><stop offset="1" stop-color="#ffaf66"></stop></linearGradient><linearGradient id="linear-gradient-6" x1="0.5" x2="0.5" y2="1" gradientUnits="objectBoundingBox"><stop offset="0" stop-color="#ff4631"></stop><stop offset="1" stop-color="#ff9e57"></stop></linearGradient><linearGradient id="linear-gradient-7" x1="0.5" x2="0.5" y2="1" gradientUnits="objectBoundingBox"><stop offset="0" stop-color="#ff2ab6"></stop><stop offset="0.301" stop-color="#ff2ab6"></stop><stop offset="0.634" stop-color="#c815db"></stop><stop offset="1" stop-color="#9200ff"></stop></linearGradient><linearGradient id="linear-gradient-8" y1="0.918" x2="0.832" y2="0.524" gradientUnits="objectBoundingBox"><stop offset="0" stop-color="#ff744e"></stop><stop offset="1" stop-color="#ff5437"></stop></linearGradient><linearGradient id="linear-gradient-9" x1="0.5" x2="0.5" y2="1" gradientUnits="objectBoundingBox"><stop offset="0" stop-color="#ff2ab6"></stop><stop offset="0.485" stop-color="#fe94ff"></stop><stop offset="1" stop-color="#9200ff"></stop></linearGradient></defs><g id="uno-re-logo" transform="translate(-6026 -5977)" clip-path="url(#clip-path)"><g id="Group_3519" data-name="Group 3519" transform="translate(882.765 -447)"><path id="Subtraction_106" data-name="Subtraction 106" d="M35.168,60.34a18.817,18.817,0,0,1-4.249-.671c-1.623-.408-13.182-3.383-16.689-4.3a11.2,11.2,0,0,1-2.576-1.042,12.523,12.523,0,0,1-2.478-1.8,13,13,0,0,1-2.129-2.576A13.859,13.859,0,0,1,5.52,46.586C3.938,41.38,1.148,31.267.238,27.769a8.5,8.5,0,0,1-.192-2.942,13.151,13.151,0,0,1,.686-3.052,15.407,15.407,0,0,1,1.3-2.794,11.271,11.271,0,0,1,1.646-2.168c2.291-2.291,4.425-4.474,4.446-4.5a1.821,1.821,0,0,0-.342-.63,1.693,1.693,0,0,0-.542-.433,1.958,1.958,0,0,0-.889-.2,4,4,0,0,1-1.284-.244,4.938,4.938,0,0,1-1.409-.775,4.186,4.186,0,0,1-1.6-3.4A4.754,4.754,0,0,1,2.481,4.59a4.038,4.038,0,0,1,1.088-1.4,4.561,4.561,0,0,1,1.449-.8,4.767,4.767,0,0,1,1.513-.256A4.711,4.711,0,0,1,9.474,3.272a4.288,4.288,0,0,1,1.075,1.359,4.079,4.079,0,0,1,.423,1.833,1.705,1.705,0,0,0,.13.654,1.978,1.978,0,0,0,.311.51,2.169,2.169,0,0,0,.689.554c.146-.123,1.122-1.114,2.155-2.163h0c1.025-1.041,2.187-2.221,2.727-2.745a11.415,11.415,0,0,1,2.986-2.031A12.625,12.625,0,0,1,22.441.363,13.1,13.1,0,0,1,25.524,0a11.551,11.551,0,0,1,2.336.292c.882.184,1.894.446,3.065.75l.748.194c2.746.708,14.293,3.743,14.409,3.773a14.04,14.04,0,0,1,3.276,1.254A12.469,12.469,0,0,1,52,8.3a11.215,11.215,0,0,1,1.192,1.348,10.53,10.53,0,0,1,.905,1.44,13.057,13.057,0,0,1,.693,1.581c.193.526.374,1.106.555,1.773.38,1.4,1.61,5.751,2.8,9.954l0,.008c.915,3.235,1.78,6.291,2.113,7.5a10.323,10.323,0,0,1,.336,2.425,13.094,13.094,0,0,1-.256,2.928,12.5,12.5,0,0,1-1.042,3.077A11.274,11.274,0,0,1,57.269,43.2c-.747.768-1.689,1.739-2.78,2.862C50.641,50.027,45.371,55.456,43.778,57a11.461,11.461,0,0,1-1.7,1.353,11.944,11.944,0,0,1-2.02,1.057A12.9,12.9,0,0,1,35.168,60.34ZM33.51,21.9h-.019c-3.038.011-6.474.065-6.508.065a5.245,5.245,0,0,0-3.127,1.331,5.024,5.024,0,0,0-1.827,3.881c0,1.95.029,3.188.055,4.28.019.8.035,1.493.035,2.295a5.042,5.042,0,0,0,1.3,3.072,4.476,4.476,0,0,0,3.37,1.67h.048c1.3-.016,2.409-.024,3.478-.032h.005c1.2-.009,2.325-.017,3.539-.035a4.249,4.249,0,0,0,1.707-.41,5.083,5.083,0,0,0,.812-.475,5.388,5.388,0,0,0,.739-.639,5.59,5.59,0,0,0,1.549-4.034c-.024-1.186-.067-4.2-.089-6.206a4.883,4.883,0,0,0-1.385-3.147A5.015,5.015,0,0,0,33.51,21.9Z" transform="translate(5156.234 6450.11)" fill="url(#linear-gradient)"></path><path id="Intersection_13" data-name="Intersection 13" d="M12.939,26.949q0-.147,0-.288a4.883,4.883,0,0,0-1.385-3.147A5.074,5.074,0,0,0,9.1,22.051V14.807c0-4.172-.265-4.692-.671-6.1C6.568,2.244.163.055,0,0A12,12,0,0,1,2.216.291c.882.184,1.894.446,3.065.75l.748.194c1.322.341,4.683,1.221,7.827,2.046V28Z" transform="translate(5181.877 6450.111)" fill="url(#linear-gradient-2)"></path><path id="Intersection_14" data-name="Intersection 14" d="M1.045,3.736C.691,2.484.338,1.218,0,0H20.17a5.8,5.8,0,0,0,1,1.64,4.476,4.476,0,0,0,3.37,1.67h.048l.786-.009.507.436Z" transform="translate(5158.485 6485.293)" fill="url(#linear-gradient-3)"></path><path id="Intersection_15" data-name="Intersection 15" d="M30.369,30.718c-1.623-.408-13.182-3.383-16.689-4.3A11.2,11.2,0,0,1,11.1,25.375a12.523,12.523,0,0,1-2.478-1.8A13,13,0,0,1,6.5,21,13.859,13.859,0,0,1,4.97,17.634C3.54,12.93,1.123,4.216,0,0,1.611,4.443,5.072,9.7,13.519,9.7c4.139,0,8.739-.083,12.424-.171q.148.011.3.011h.048c1.3-.016,2.409-.024,3.478-.032h.005c1.2-.009,2.325-.017,3.539-.035a4.247,4.247,0,0,0,1.707-.41,5.072,5.072,0,0,0,.812-.475,5.387,5.387,0,0,0,.739-.638,5.58,5.58,0,0,0,1.55-3.91l1.418-1.452V30.444l-.027.011a12.9,12.9,0,0,1-4.892.934A18.817,18.817,0,0,1,30.369,30.718Z" transform="translate(5156.785 6479.062)" fill="url(#linear-gradient-4)"></path><path id="Intersection_17" data-name="Intersection 17" d="M5.773,8.617A12.715,12.715,0,0,1,.937,3.464C.576,2.144.255.956,0,0,1.611,4.443,5.073,9.7,13.519,9.7c4.139,0,8.739-.083,12.424-.171q.148.011.3.011h.048c1.3-.016,2.409-.024,3.478-.032h.005c1.2-.009,2.325-.017,3.539-.035a4.247,4.247,0,0,0,1.707-.41,5.072,5.072,0,0,0,.812-.475,5.387,5.387,0,0,0,.739-.638,5.58,5.58,0,0,0,1.55-3.91l.49-.5a4.452,4.452,0,0,1,.083,1.338,5.6,5.6,0,0,1-5.48,5.348c-2.57.057-14.372.151-17.99.151S9.118,10.375,5.773,8.617Z" transform="translate(5156.785 6479.062)" fill="url(#linear-gradient-5)"></path><path id="Intersection_19" data-name="Intersection 19" d="M0,6.705a4.622,4.622,0,0,0,.6-.229A5.072,5.072,0,0,0,1.41,6a5.387,5.387,0,0,0,.739-.638A5.58,5.58,0,0,0,3.7,1.452L5.118,0V27.857l-.027.011a12.885,12.885,0,0,1-4.81.933Z" transform="translate(5191.203 6481.649)" fill="url(#linear-gradient-6)"></path><path id="Intersection_20" data-name="Intersection 20" d="M4.644,59.706a5.08,5.08,0,0,0,4.22-1.366c1.984-1.776,1.694-3.607,1.694-7.266,0-1.7-.073-9.683-.155-17.932a5.988,5.988,0,0,0,.023-.667c-.024-1.186-.067-4.2-.089-6.206q0-.085-.006-.171c-.072-6.874-.138-12.633-.155-13.307A13.11,13.11,0,0,0,8.794,6.919,12.887,12.887,0,0,0,0,0L.105.006C.868.179,1.721.4,2.682.649L3.43.843c2.746.708,14.293,3.743,14.409,3.773a14.042,14.042,0,0,1,3.276,1.254A12.466,12.466,0,0,1,23.755,7.9a11.215,11.215,0,0,1,1.192,1.348,10.538,10.538,0,0,1,.905,1.44,13.081,13.081,0,0,1,.693,1.581c.193.526.374,1.106.554,1.773.38,1.4,1.61,5.751,2.8,9.954l0,.008c.915,3.235,1.78,6.291,2.113,7.5a10.32,10.32,0,0,1,.336,2.425,13.094,13.094,0,0,1-.256,2.928,12.509,12.509,0,0,1-1.042,3.077,11.277,11.277,0,0,1-2.024,2.871c-.747.768-1.689,1.739-2.78,2.862C22.4,49.634,17.129,55.064,15.536,56.6a11.455,11.455,0,0,1-1.7,1.353,11.939,11.939,0,0,1-2.02,1.057,12.9,12.9,0,0,1-4.892.934A13.427,13.427,0,0,1,4.644,59.706Z" transform="translate(5184.477 6450.502)" fill="url(#linear-gradient-7)"></path><path id="Intersection_27" data-name="Intersection 27" d="M0,5.755a4.617,4.617,0,0,0,.579-.221h0L.6,5.525A5.072,5.072,0,0,0,1.41,5.05a5.387,5.387,0,0,0,.739-.638A5.58,5.58,0,0,0,3.7.5L4.19,0a4.452,4.452,0,0,1,.083,1.338A5.588,5.588,0,0,1,.01,6.521Z" transform="translate(5191.203 6482.6)" fill="url(#linear-gradient-8)"></path><path id="Intersection_22" data-name="Intersection 22" d="M4.644,59.706a5.08,5.08,0,0,0,4.22-1.366c1.984-1.776,1.694-3.607,1.694-7.266,0-1.7-.073-9.683-.155-17.932a6,6,0,0,0,.023-.667c-.024-1.186-.067-4.2-.089-6.206q0-.085-.006-.171c-.072-6.874-.138-12.633-.155-13.307A13.11,13.11,0,0,0,8.794,6.919,12.887,12.887,0,0,0,0,0L.105.006C.868.179,1.721.4,2.682.649L3.43.843l1,.26A12.431,12.431,0,0,1,9.376,6.454,16.042,16.042,0,0,1,10.96,14.42c0,3.867.553,34.454.387,38.771-.152,3.955-.653,4.914-3.7,6.738q-.357.018-.719.018A13.419,13.419,0,0,1,4.644,59.706Z" transform="translate(5184.477 6450.502)" fill="url(#linear-gradient-9)"></path><path id="Path_3980" data-name="Path 3980" d="M5279.927,6568.051a4.072,4.072,0,1,0,0,8.145,4.072,4.072,0,0,0,0-8.145Z" transform="translate(-107.108 -128.993)" fill="#ffbb3c"></path><path id="Path_3981" data-name="Path 3981" d="M5278.658,6568.051a2.806,2.806,0,1,0,0,5.612,2.806,2.806,0,0,0,0-5.612Z" transform="translate(-115.725 -137.809)" fill="#00ebff"></path><path id="Path_3982" data-name="Path 3982" d="M5278,6568.051a2.149,2.149,0,1,0,0,4.3,2.149,2.149,0,0,0,0-4.3Z" transform="translate(-105.869 -144.051)" fill="#ff5d87"></path></g></g></svg>