<svg xmlns="http://www.w3.org/2000/svg" width="151" height="201" viewBox="0 0 151 201">
  <g id="Bit_dark" data-name="Bit dark" transform="translate(-4767.292 -5497)">
    <path id="Rectangle_2903" data-name="Rectangle 2903" d="M0,0H52a49,49,0,0,1,49,49v0A49,49,0,0,1,52,98H49A49,49,0,0,1,0,49V0A0,0,0,0,1,0,0Z" transform="translate(4793.292 5497)" fill="#ee4100"/>
    <path id="Union_12" data-name="Union 12" d="M0,201V26a26,26,0,0,1,52,0V76H91a60,60,0,0,1,60,60v5a60,60,0,0,1-60,60Z" transform="translate(4767.292 5497)" fill="#ececec"/>
  </g>
</svg>
